<svg width="24" height="24" viewBox="0 0 24 24" fill="none" xmlns="http://www.w3.org/2000/svg">
<path d="M12.727 3.68676C12.8172 3.59129 12.8877 3.47898 12.9345 3.35626C12.9814 3.23353 13.0035 3.10278 12.9998 2.97148C12.9961 2.84017 12.9666 2.71089 12.9129 2.591C12.8592 2.47112 12.7824 2.36298 12.687 2.27276C12.5915 2.18254 12.4792 2.11201 12.3565 2.0652C12.2337 2.01838 12.103 1.9962 11.9717 1.99991C11.8404 2.00363 11.7111 2.03317 11.5912 2.08684C11.4713 2.14052 11.3632 2.21729 11.273 2.31276L2.77298 11.3128C2.59744 11.4984 2.49963 11.7442 2.49963 11.9998C2.49963 12.2553 2.59744 12.5011 2.77298 12.6868L11.273 21.6878C11.3626 21.7853 11.4707 21.8641 11.591 21.9195C11.7114 21.975 11.8415 22.0059 11.9739 22.0106C12.1063 22.0153 12.2383 21.9937 12.3623 21.9469C12.4862 21.9002 12.5997 21.8293 12.696 21.7383C12.7923 21.6474 12.8696 21.5382 12.9233 21.4171C12.9771 21.296 13.0063 21.1655 13.0092 21.033C13.0121 20.9006 12.9886 20.7689 12.9402 20.6456C12.8917 20.5223 12.8192 20.4098 12.727 20.3148L4.87498 11.9998L12.727 3.68676Z" fill="black"/>
</svg>
