<svg width="48" height="48" viewBox="0 0 48 48" fill="none" xmlns="http://www.w3.org/2000/svg">
<path d="M35.5 6C37.2239 6 38.8772 6.68482 40.0962 7.90381C41.3152 9.12279 42 10.7761 42 12.5V35.5C42 37.2239 41.3152 38.8772 40.0962 40.0962C38.8772 41.3152 37.2239 42 35.5 42H12.5C10.7761 42 9.12279 41.3152 7.90381 40.0962C6.68482 38.8772 6 37.2239 6 35.5V12.5C6 10.7761 6.68482 9.12279 7.90381 7.90381C9.12279 6.68482 10.7761 6 12.5 6H35.5ZM39 17H9V35.5C9 37.432 10.568 39 12.5 39H35.5C36.4283 39 37.3185 38.6312 37.9749 37.9749C38.6312 37.3185 39 36.4283 39 35.5V17ZM15.5 29C16.163 29 16.7989 29.2634 17.2678 29.7322C17.7366 30.2011 18 30.837 18 31.5C18 32.163 17.7366 32.7989 17.2678 33.2678C16.7989 33.7366 16.163 34 15.5 34C14.837 34 14.2011 33.7366 13.7322 33.2678C13.2634 32.7989 13 32.163 13 31.5C13 30.837 13.2634 30.2011 13.7322 29.7322C14.2011 29.2634 14.837 29 15.5 29ZM24 29C24.663 29 25.2989 29.2634 25.7678 29.7322C26.2366 30.2011 26.5 30.837 26.5 31.5C26.5 32.163 26.2366 32.7989 25.7678 33.2678C25.2989 33.7366 24.663 34 24 34C23.337 34 22.7011 33.7366 22.2322 33.2678C21.7634 32.7989 21.5 32.163 21.5 31.5C21.5 30.837 21.7634 30.2011 22.2322 29.7322C22.7011 29.2634 23.337 29 24 29ZM15.5 21C16.163 21 16.7989 21.2634 17.2678 21.7322C17.7366 22.2011 18 22.837 18 23.5C18 24.163 17.7366 24.7989 17.2678 25.2678C16.7989 25.7366 16.163 26 15.5 26C14.837 26 14.2011 25.7366 13.7322 25.2678C13.2634 24.7989 13 24.163 13 23.5C13 22.837 13.2634 22.2011 13.7322 21.7322C14.2011 21.2634 14.837 21 15.5 21ZM24 21C24.663 21 25.2989 21.2634 25.7678 21.7322C26.2366 22.2011 26.5 22.837 26.5 23.5C26.5 24.163 26.2366 24.7989 25.7678 25.2678C25.2989 25.7366 24.663 26 24 26C23.337 26 22.7011 25.7366 22.2322 25.2678C21.7634 24.7989 21.5 24.163 21.5 23.5C21.5 22.837 21.7634 22.2011 22.2322 21.7322C22.7011 21.2634 23.337 21 24 21ZM32.5 21C33.163 21 33.7989 21.2634 34.2678 21.7322C34.7366 22.2011 35 22.837 35 23.5C35 24.163 34.7366 24.7989 34.2678 25.2678C33.7989 25.7366 33.163 26 32.5 26C31.837 26 31.2011 25.7366 30.7322 25.2678C30.2634 24.7989 30 24.163 30 23.5C30 22.837 30.2634 22.2011 30.7322 21.7322C31.2011 21.2634 31.837 21 32.5 21ZM35.5 9H12.5C11.5717 9 10.6815 9.36875 10.0251 10.0251C9.36875 10.6815 9 11.5717 9 12.5V14H39V12.5C39 11.5717 38.6312 10.6815 37.9749 10.0251C37.3185 9.36875 36.4283 9 35.5 9Z" fill="black"/>
</svg>
