<svg width="48" height="48" viewBox="0 0 48 48" fill="none" xmlns="http://www.w3.org/2000/svg">
<path d="M42 17V35.5C42 37.2239 41.3152 38.8772 40.0962 40.0962C38.8772 41.3152 37.2239 42 35.5 42H12.5C10.7761 42 9.12279 41.3152 7.90381 40.0962C6.68482 38.8772 6 37.2239 6 35.5V17H42ZM14.5 30C13.837 30 13.2011 30.2634 12.7322 30.7322C12.2634 31.2011 12 31.837 12 32.5C12 33.163 12.2634 33.7989 12.7322 34.2678C13.2011 34.7366 13.837 35 14.5 35C15.163 35 15.7989 34.7366 16.2678 34.2678C16.7366 33.7989 17 33.163 17 32.5C17 31.837 16.7366 31.2011 16.2678 30.7322C15.7989 30.2634 15.163 30 14.5 30ZM24 30C23.337 30 22.7011 30.2634 22.2322 30.7322C21.7634 31.2011 21.5 31.837 21.5 32.5C21.5 33.163 21.7634 33.7989 22.2322 34.2678C22.7011 34.7366 23.337 35 24 35C24.663 35 25.2989 34.7366 25.7678 34.2678C26.2366 33.7989 26.5 33.163 26.5 32.5C26.5 31.837 26.2366 31.2011 25.7678 30.7322C25.2989 30.2634 24.663 30 24 30ZM14.5 21C13.837 21 13.2011 21.2634 12.7322 21.7322C12.2634 22.2011 12 22.837 12 23.5C12 24.163 12.2634 24.7989 12.7322 25.2678C13.2011 25.7366 13.837 26 14.5 26C15.163 26 15.7989 25.7366 16.2678 25.2678C16.7366 24.7989 17 24.163 17 23.5C17 22.837 16.7366 22.2011 16.2678 21.7322C15.7989 21.2634 15.163 21 14.5 21ZM24 21C23.337 21 22.7011 21.2634 22.2322 21.7322C21.7634 22.2011 21.5 22.837 21.5 23.5C21.5 24.163 21.7634 24.7989 22.2322 25.2678C22.7011 25.7366 23.337 26 24 26C24.663 26 25.2989 25.7366 25.7678 25.2678C26.2366 24.7989 26.5 24.163 26.5 23.5C26.5 22.837 26.2366 22.2011 25.7678 21.7322C25.2989 21.2634 24.663 21 24 21ZM33.5 21C32.837 21 32.2011 21.2634 31.7322 21.7322C31.2634 22.2011 31 22.837 31 23.5C31 24.163 31.2634 24.7989 31.7322 25.2678C32.2011 25.7366 32.837 26 33.5 26C34.163 26 34.7989 25.7366 35.2678 25.2678C35.7366 24.7989 36 24.163 36 23.5C36 22.837 35.7366 22.2011 35.2678 21.7322C34.7989 21.2634 34.163 21 33.5 21ZM35.5 6C37.2239 6 38.8772 6.68482 40.0962 7.90381C41.3152 9.12279 42 10.7761 42 12.5V14H6V12.5C6 10.7761 6.68482 9.12279 7.90381 7.90381C9.12279 6.68482 10.7761 6 12.5 6H35.5Z" fill="black"/>
</svg>
