<svg width="24" height="24" viewBox="0 0 24 24" fill="none" xmlns="http://www.w3.org/2000/svg">
<path d="M0 5.85366C0 2.62077 2.62077 0 5.85366 0C9.08654 0 11.7073 2.62077 11.7073 5.85366V11.7073H5.85366C2.62077 11.7073 0 9.08654 0 5.85366Z" fill="white"/>
<path d="M24 5.85366C24 2.62077 21.3792 0 18.1463 0C14.9135 0 12.2927 2.62077 12.2927 5.85366L12.2927 11.7073L18.1463 11.7073C21.3792 11.7073 24 9.08654 24 5.85366Z" fill="white"/>
<path d="M0 18.1463C0 21.3792 2.62077 24 5.85366 24C9.08654 24 11.7073 21.3792 11.7073 18.1463V12.2927H5.85366C2.62077 12.2927 0 14.9135 0 18.1463Z" fill="white"/>
<path d="M24 18.1463C24 21.3792 21.3792 24 18.1463 24C14.9135 24 12.2927 21.3792 12.2927 18.1463V12.2927H18.1463C21.3792 12.2927 24 14.9135 24 18.1463Z" fill="white"/>
</svg>
