<svg width="48" height="48" viewBox="0 0 48 48" fill="none" xmlns="http://www.w3.org/2000/svg">
<path d="M36 4C37.0609 4 38.0783 4.42143 38.8284 5.17157C39.5786 5.92172 40 6.93913 40 8V40C40 41.0609 39.5786 42.0783 38.8284 42.8284C38.0783 43.5786 37.0609 44 36 44H12C10.9391 44 9.92172 43.5786 9.17157 42.8284C8.42143 42.0783 8 41.0609 8 40V8C8 6.93913 8.42143 5.92172 9.17157 5.17157C9.92172 4.42143 10.9391 4 12 4H36ZM24 26H18C17.4696 26 16.9609 26.2107 16.5858 26.5858C16.2107 26.9609 16 27.4696 16 28C16 28.5304 16.2107 29.0391 16.5858 29.4142C16.9609 29.7893 17.4696 30 18 30H24C24.5304 30 25.0391 29.7893 25.4142 29.4142C25.7893 29.0391 26 28.5304 26 28C26 27.4696 25.7893 26.9609 25.4142 26.5858C25.0391 26.2107 24.5304 26 24 26ZM30 16H18C17.4902 16.0006 16.9999 16.1958 16.6293 16.5457C16.2586 16.8956 16.0355 17.3739 16.0057 17.8828C15.9758 18.3917 16.1413 18.8928 16.4685 19.2837C16.7957 19.6746 17.2598 19.9258 17.766 19.986L18 20H30C30.5098 19.9994 31.0001 19.8042 31.3707 19.4543C31.7414 19.1044 31.9645 18.6261 31.9943 18.1172C32.0242 17.6083 31.8587 17.1072 31.5315 16.7163C31.2043 16.3254 30.7402 16.0742 30.234 16.014L30 16Z" fill="black"/>
</svg>
