<svg width="48" height="48" viewBox="0 0 48 48" fill="none" xmlns="http://www.w3.org/2000/svg">
<path d="M40 11.2C40 10.08 40 9.52 39.78 9.092C39.5888 8.716 39.2836 8.41008 38.908 8.218C38.48 8 37.92 8 36.8 8H11.2C10.08 8 9.52 8 9.092 8.218C8.71569 8.40974 8.40974 8.71569 8.218 9.092C8 9.52 8 10.08 8 11.2V12.674C8 13.164 8 13.408 8.056 13.638C8.10497 13.8428 8.18597 14.0385 8.296 14.218C8.418 14.418 8.592 14.592 8.936 14.938L19.062 25.062C19.408 25.408 19.582 25.582 19.704 25.782C19.8147 25.9633 19.8947 26.1567 19.944 26.362C20 26.59 20 26.832 20 27.31V36.822C20 38.536 20 39.394 20.36 39.91C20.5162 40.1332 20.7163 40.3221 20.9481 40.4651C21.1799 40.6082 21.4385 40.7024 21.708 40.742C22.33 40.834 23.098 40.452 24.63 39.684L26.23 38.884C26.874 38.564 27.194 38.404 27.428 38.164C27.6356 37.952 27.7934 37.6965 27.89 37.416C28 37.1 28 36.74 28 36.022V27.326C28 26.836 28 26.592 28.056 26.362C28.105 26.1572 28.186 25.9615 28.296 25.782C28.416 25.582 28.59 25.41 28.93 25.07L28.938 25.062L39.064 14.938C39.408 14.592 39.58 14.418 39.704 14.218C39.8147 14.0367 39.8947 13.8433 39.944 13.638C40 13.412 40 13.168 40 12.69V11.2Z" stroke="black" stroke-width="4" stroke-linecap="round" stroke-linejoin="round"/>
</svg>
