<svg width="48" height="48" viewBox="0 0 48 48" fill="none" xmlns="http://www.w3.org/2000/svg">
<path d="M40 34.0003V22.9044C40 21.8358 39.9991 21.3011 39.8691 20.8039C39.754 20.3632 39.565 19.9461 39.3091 19.5693C39.0205 19.144 38.6191 18.7914 37.8148 18.0877L28.2148 9.68765C26.7216 8.38108 25.975 7.72813 25.1348 7.47964C24.3944 7.26069 23.6052 7.26069 22.8648 7.47964C22.0252 7.72794 21.2797 8.38028 19.7887 9.68487L10.1855 18.0877C9.38128 18.7914 8.98008 19.144 8.69141 19.5693C8.43558 19.9461 8.2451 20.3632 8.12994 20.8039C8 21.3011 8 21.8358 8 22.9044V34.0003C8 35.8641 8 36.7956 8.30448 37.5307C8.71046 38.5108 9.48864 39.2905 10.4687 39.6964C11.2038 40.0009 12.1357 40.0009 13.9995 40.0009C15.8632 40.0009 16.7962 40.0009 17.5312 39.6964C18.5114 39.2905 19.2893 38.511 19.6953 37.5309C19.9998 36.7958 20 35.8639 20 34.0002V32.0002C20 29.791 21.7909 28.0002 24 28.0002C26.2091 28.0002 28 29.791 28 32.0002V34.0002C28 35.8639 28 36.7958 28.3045 37.5309C28.7105 38.511 29.4886 39.2905 30.4687 39.6964C31.2038 40.0009 32.1357 40.0009 33.9995 40.0009C35.8632 40.0009 36.7962 40.0009 37.5312 39.6964C38.5114 39.2905 39.2893 38.5108 39.6953 37.5307C39.9998 36.7956 40 35.8641 40 34.0003Z" fill="black" stroke="black" stroke-width="3" stroke-linecap="round" stroke-linejoin="round"/>
</svg>
