<svg width="48" height="48" viewBox="0 0 48 48" fill="none" xmlns="http://www.w3.org/2000/svg">
<path d="M17.1321 11.92C16.989 10.9347 17.0596 9.93013 17.3392 8.97454C17.6187 8.01894 18.1006 7.13467 18.752 6.38177C19.4035 5.62887 20.2094 5.02497 21.1149 4.61105C22.0204 4.19714 23.0044 3.98291 24.0001 3.98291C24.9957 3.98291 25.9797 4.19714 26.8852 4.61105C27.7907 5.02497 28.5966 5.62887 29.2481 6.38177C29.8996 7.13467 30.3814 8.01894 30.6609 8.97454C30.9405 9.93013 31.0111 10.9347 30.8681 11.92L28.5641 28.04C28.4046 29.1367 27.8556 30.1392 27.0175 30.8643C26.1794 31.5893 25.1083 31.9883 24.0001 31.9883C22.8919 31.9883 21.8207 31.5893 20.9826 30.8643C20.1445 30.1392 19.5955 29.1367 19.4361 28.04L17.1321 11.92ZM28.0001 40C28.0001 41.0609 27.5786 42.0783 26.8285 42.8284C26.0783 43.5786 25.0609 44 24.0001 44C22.9392 44 21.9218 43.5786 21.1716 42.8284C20.4215 42.0783 20.0001 41.0609 20.0001 40C20.0001 38.9391 20.4215 37.9217 21.1716 37.1716C21.9218 36.4214 22.9392 36 24.0001 36C25.0609 36 26.0783 36.4214 26.8285 37.1716C27.5786 37.9217 28.0001 38.9391 28.0001 40Z" fill="black"/>
</svg>
