<svg width="100" height="24" viewBox="0 0 100 24" fill="none" xmlns="http://www.w3.org/2000/svg">
<rect width="24" height="24" rx="3.75" fill="#449630"/>
<path d="M8.42623 6.47139C9.21551 5.10432 10.9636 4.63593 12.3306 5.42521C13.6977 6.21449 14.1661 7.96256 13.3768 9.32963L11.9477 11.8049L9.47242 10.3758C8.10535 9.58653 7.63695 7.83847 8.42623 6.47139Z" fill="white"/>
<path d="M18.5749 12.3308C19.3642 10.9637 18.8958 9.21563 17.5287 8.42635C16.1617 7.63707 14.4136 8.10547 13.6243 9.47254L12.1952 11.9478L14.6705 13.377C16.0376 14.1662 17.7856 13.6978 18.5749 12.3308Z" fill="white"/>
<path d="M5.42509 11.6697C4.63581 13.0368 5.1042 14.7849 6.47127 15.5741C7.83834 16.3634 9.58641 15.895 10.3757 14.528L11.8048 12.0526L9.3295 10.6235C7.96243 9.83425 6.21437 10.3026 5.42509 11.6697Z" fill="white"/>
<path d="M15.5738 17.5291C14.7845 18.8962 13.0364 19.3646 11.6694 18.5753C10.3023 17.786 9.83389 16.0379 10.6232 14.6709L12.0523 12.1956L14.5276 13.6247C15.8947 14.414 16.363 16.162 15.5738 17.5291Z" fill="white"/>
<path d="M32.344 7.552V13.536C32.344 13.84 32.312 14.128 32.328 14.416C32.328 14.56 32.328 14.736 32.44 14.832C32.568 14.944 32.776 14.928 32.936 14.928C33.176 14.928 33.432 14.944 33.672 14.944C34.216 14.944 35.288 14.928 35.816 14.992C36.184 15.04 36.6 15.088 36.92 15.296C37.08 15.408 37.16 15.6 37.176 15.792C37.192 15.888 37.192 15.984 37.192 16.096C37.176 16.336 37.096 16.56 36.936 16.736C36.776 16.912 36.568 17.008 36.344 17.056C36.04 17.104 35.768 17.152 35.464 17.152C35.272 17.152 34.376 17.136 34.2 17.136H32.728C32.312 17.136 31.912 17.072 31.496 17.056C31.176 17.04 30.808 16.944 30.568 16.72C30.344 16.496 30.232 16.208 30.168 15.904C30.04 15.216 30.104 14.48 30.104 13.776V9.856C30.104 9.488 30.12 9.104 30.104 8.72C30.104 8.656 30.072 7.328 30.104 6.624C30.136 6.192 30.248 5.664 30.792 5.44C31.032 5.36 31.288 5.296 31.544 5.36C31.8 5.424 32.04 5.584 32.152 5.856C32.28 6.16 32.328 6.496 32.328 6.848C32.328 7.088 32.328 7.312 32.344 7.552ZM40.856 9.936H40.888C40.984 9.936 41.08 9.968 41.192 9.968C41.304 9.984 41.432 10 41.56 10.016C41.8 10.064 42.056 10.16 42.168 10.4C42.248 10.528 42.28 10.672 42.28 10.816C42.28 10.976 42.28 11.12 42.232 11.28C42.2 11.44 42.152 11.664 42.008 11.776C41.88 11.872 41.736 11.952 41.576 11.984C41.24 12.032 40.664 11.984 40.328 12C40.296 12 40.28 12.016 40.28 12.016C40.28 12.016 40.264 12.016 40.264 12.08C40.248 12.608 40.264 13.568 40.264 14.112C40.28 14.656 40.28 15.216 40.264 15.744V15.968C40.264 16.528 40.264 17.344 39.88 17.728C39.752 17.872 39.576 17.952 39.368 17.952C39.368 17.952 39.352 17.936 39.336 17.936C38.296 17.904 38.184 16.656 38.184 15.984V6.48C38.184 6.448 38.168 5.648 38.52 5.296C38.664 5.152 39 5.072 39.24 5.072C39.48 5.072 39.688 5.168 39.832 5.312C40.12 5.616 40.136 5.952 40.168 6.304C40.184 6.368 40.184 6.432 40.184 6.496C40.232 6.848 40.232 7.248 40.248 7.632C40.248 7.872 40.264 8.08 40.264 8.32C40.248 8.448 40.264 8.56 40.264 8.672V9.552C40.264 9.664 40.264 9.792 40.296 9.904C40.296 9.92 40.616 9.92 40.632 9.92C40.712 9.936 40.776 9.952 40.856 9.936ZM47.0173 4.864C49.1933 5.008 50.4093 6.256 50.2493 8.544C50.1053 10.448 49.0813 11.552 47.0493 11.552C45.9453 11.552 45.3693 11.632 44.3932 11.024C43.4653 10.432 43.1773 9.248 43.1773 8.224C43.1773 5.92 44.8093 4.704 47.0173 4.864ZM54.6493 10.384H54.6813C54.7933 10.368 54.8893 10.4 54.9853 10.4C55.1133 10.416 55.2253 10.432 55.3533 10.448C55.5933 10.496 55.8493 10.592 55.9773 10.832C56.0413 10.96 56.0733 11.104 56.0733 11.264C56.0733 11.408 56.0733 11.568 56.0413 11.712C55.9933 11.872 55.9453 12.096 55.8173 12.208C55.6893 12.304 55.5293 12.384 55.3693 12.416C55.0333 12.464 54.4573 12.416 54.1213 12.432C54.0893 12.448 54.0733 12.448 54.0733 12.448C54.0733 12.448 54.0733 12.464 54.0573 12.512C54.0413 13.04 54.0573 13.504 54.0573 14.048C54.0733 14.592 54.0733 15.152 54.0573 15.68V15.904C54.0573 16.464 54.0733 17.28 53.6893 17.68C53.5453 17.808 53.3693 17.888 53.1613 17.888H53.1293C52.0893 17.84 51.9933 16.592 51.9933 15.92V6.416C51.9933 6.384 51.9613 5.584 52.3133 5.232C52.4733 5.088 52.8093 5.008 53.0333 5.008C53.2733 5.008 53.4973 5.104 53.6413 5.248C53.9133 5.552 53.9453 5.888 53.9613 6.24C53.9773 6.304 53.9773 6.368 53.9933 6.448C54.0253 6.784 54.0253 7.184 54.0413 7.568C54.0413 7.808 54.0573 8.032 54.0573 8.256V9.984C54.0573 10.096 54.0573 10.224 54.0893 10.336C54.0893 10.352 54.4093 10.352 54.4413 10.368C54.5053 10.368 54.5853 10.384 54.6493 10.384ZM44.0413 14.688C44.1213 14.656 45.1133 14.72 45.3853 14.72C45.4173 14.384 45.4493 12.688 45.4973 12.56C45.5773 12.304 45.7693 12.112 45.9933 12.016C46.1213 11.968 46.2333 11.952 46.3613 11.952C46.8253 11.952 47.2253 12.224 47.3373 12.608C47.4013 12.768 47.4013 14.4 47.4013 14.704V14.72H50.0093C50.3612 14.72 50.6493 14.784 50.8573 14.912C51.3373 15.2 51.3212 15.984 51.1133 16.368C50.9213 16.704 50.5052 16.736 50.1693 16.736H43.8493C43.8333 16.736 43.2893 16.688 43.0013 16.56C42.7933 16.448 42.6333 16.208 42.5853 15.904C42.5373 15.568 42.6493 15.248 42.8573 15.056C43.2413 14.736 43.6733 14.688 44.0413 14.688ZM48.3933 8.736L48.4093 8.608C48.5053 7.84 48.1213 7.104 47.4493 6.864C46.5533 6.56 45.1773 6.832 45.0013 8.032C44.8733 8.848 45.2253 9.744 46.4573 9.856C47.3053 9.952 48.1853 9.712 48.3933 8.736ZM57.9669 11.888C57.5349 11.584 57.2309 11.136 57.0549 10.608C56.8469 10.064 56.7829 9.552 56.7829 9.024C56.7829 8.464 56.8789 8 57.0549 7.536C57.2629 7.088 57.5029 6.688 57.8389 6.384C58.1749 6.032 58.5429 5.776 59.0229 5.6C59.4549 5.392 59.9669 5.296 60.5109 5.296C60.7189 5.264 60.8789 5.264 61.0709 5.296C61.2469 5.296 61.4549 5.328 61.6309 5.36C61.7109 5.392 61.8229 5.392 61.9189 5.424C62.0309 5.424 62.1269 5.472 62.1909 5.504C62.4309 5.568 62.6229 5.632 62.8309 5.744C63.0389 5.84 63.2149 5.936 63.3749 6.032C63.5029 6.096 63.6789 6.24 63.8229 6.384C64.0309 6.592 64.1589 6.752 64.2869 6.976C64.4149 7.184 64.5269 7.424 64.5589 7.696C64.6229 7.936 64.6549 8.176 64.7029 8.416C64.7349 8.64 64.7669 8.88 64.7349 9.152C64.7349 9.28 64.7029 9.456 64.7029 9.584C64.6549 9.76 64.6549 9.936 64.5909 10.064C64.5269 10.464 64.3829 10.88 64.1909 11.216C63.9509 11.584 63.6789 11.84 63.3109 12.096C63.0389 12.256 62.7669 12.4 62.4629 12.464C62.1909 12.544 61.8869 12.592 61.5989 12.656C61.4869 12.688 61.3909 12.688 61.2789 12.688C61.2149 12.688 61.1029 12.688 61.0069 12.72H60.7189C60.6389 12.72 60.5429 12.72 60.4309 12.688C60.3029 12.688 60.1589 12.688 60.0309 12.656C59.8709 12.656 59.7269 12.624 59.5829 12.624C59.2789 12.576 59.0229 12.496 58.7509 12.368C58.4629 12.224 58.2069 12.096 57.9669 11.888ZM68.2869 7.104V8.144C68.3189 8.56 68.3189 9.024 68.3189 9.504V12.096C68.3189 12.576 68.3189 13.008 68.2869 13.408V15.232C68.2549 15.568 68.2869 15.92 68.2869 16.208C68.2869 16.416 68.2869 16.624 68.2549 16.784C68.2549 16.96 68.2229 17.088 68.1429 17.2C68.1109 17.296 68.0469 17.36 68.0149 17.472C67.9349 17.536 67.8709 17.632 67.6949 17.696C67.5029 17.84 67.2309 17.872 66.9589 17.84C66.7829 17.792 66.6549 17.728 66.5589 17.632C66.4629 17.568 66.3829 17.44 66.3189 17.296C66.2549 17.152 66.2069 17.024 66.2069 16.88C66.1749 16.784 66.1429 16.656 66.1429 16.592V16.416L66.1109 6.928C66.1109 6.656 66.1109 6.384 66.1749 6.048C66.2069 5.744 66.3189 5.504 66.4629 5.344C66.5909 5.248 66.7189 5.168 66.8149 5.136C66.9589 5.104 67.0869 5.104 67.2629 5.104C67.4389 5.104 67.5989 5.136 67.7749 5.248C67.9029 5.344 68.0149 5.488 68.0789 5.648C68.1749 5.888 68.2549 6.128 68.2549 6.352C68.2549 6.592 68.2549 6.864 68.2869 7.104ZM64.7669 14.48C64.9109 14.528 65.0389 14.592 65.1349 14.656C65.3429 14.864 65.4709 15.072 65.4709 15.328C65.4709 15.504 65.4069 15.68 65.2949 15.808C65.1989 15.936 65.0869 16.032 64.9429 16.08C64.8309 16.112 64.7349 16.144 64.6229 16.144C64.4949 16.176 64.3829 16.176 64.2869 16.176H62.7669C62.3989 16.176 62.0309 16.176 61.6309 16.208H60.5109C60.1269 16.176 59.8389 16.176 59.5509 16.176H57.8709C57.6629 16.176 57.4709 16.144 57.2629 16.112C57.1509 16.08 57.0549 16.032 56.9589 16C56.8469 15.968 56.7829 15.936 56.6869 15.856C56.5589 15.712 56.4789 15.536 56.4789 15.264C56.4789 15.04 56.5589 14.864 56.6869 14.72C56.7509 14.624 56.8469 14.56 56.9909 14.528C57.1189 14.48 57.2629 14.448 57.3589 14.416C57.5029 14.384 57.5829 14.384 57.6629 14.384H63.7109C63.9189 14.384 64.1269 14.384 64.2869 14.416C64.4629 14.416 64.5909 14.448 64.7669 14.48ZM58.9109 8.736C58.8789 8.944 58.8789 9.152 58.9109 9.376C58.9589 9.616 59.0229 9.824 59.1189 10C59.3429 10.336 59.6629 10.576 60.0629 10.736C60.3669 10.848 60.6709 10.88 60.9749 10.88C61.1509 10.848 61.2789 10.848 61.4549 10.816C61.5989 10.816 61.7429 10.736 61.8869 10.672C62.0949 10.576 62.2709 10.4 62.3989 10.192C62.5429 9.968 62.5909 9.76 62.6549 9.52C62.7349 9.152 62.7029 8.848 62.5909 8.496C62.5429 8.352 62.4629 8.208 62.3989 8.096C62.3349 8.032 62.3029 7.936 62.2229 7.904C62.1909 7.824 62.1269 7.76 62.0309 7.696C61.9509 7.648 61.8549 7.6 61.7749 7.568C61.6949 7.504 61.5989 7.472 61.4869 7.424C61.2149 7.36 60.9429 7.328 60.6389 7.328C60.3669 7.328 60.0949 7.36 59.8709 7.472C59.6309 7.568 59.4229 7.696 59.2469 7.936C59.0869 8.144 58.9909 8.416 58.9109 8.736ZM79.5361 5.392C80.8161 6.08 81.3441 7.28 81.2161 8.944C81.0881 11.072 80.0481 12.112 77.8401 12.112C76.6721 12.112 76.0321 12.208 74.9921 11.536C73.9841 10.88 73.6801 9.712 73.6801 8.592C73.6801 7.472 74.0641 6.432 74.9761 5.728C75.7281 5.136 76.7041 4.848 77.6321 4.928C78.4801 4.992 78.7841 5.056 79.5361 5.392ZM83.7921 13.456C84.6721 13.456 85.0881 13.904 85.0881 14.4V15.312C85.0881 15.44 85.0881 16.112 85.1041 16.224C85.1041 16.448 85.1041 16.688 85.0881 16.928C85.0561 17.376 84.7041 17.68 84.2241 17.68C84.1121 17.68 83.7761 17.664 83.6641 17.632C83.0881 17.456 83.0561 16.928 83.0241 16.448C83.0241 16.256 83.0081 15.52 82.9601 15.36C82.8961 15.344 82.6881 15.312 81.8881 15.312C81.2161 15.312 81.1361 15.328 81.1201 15.328H75.3441C75.3121 15.328 74.6881 15.168 74.6241 14.736C74.5601 14.32 74.6241 14 74.8161 13.776C75.0721 13.472 75.4561 13.472 75.4721 13.456H83.7921ZM85.0721 6.24V6.64C85.2481 6.656 86.1121 6.672 86.3041 6.72C86.7201 6.8 86.8641 6.976 86.9121 7.2C86.9761 7.424 86.9921 7.792 86.8641 8C86.6081 8.416 86.0641 8.4 85.4401 8.416H85.0721V9.392H86.2721C86.6881 9.472 86.8321 9.648 86.8801 9.872C86.9441 10.096 86.9921 10.464 86.8641 10.672C86.6081 11.088 86.0481 11.088 85.4241 11.104H85.0721V11.312C85.0561 11.536 85.0241 11.792 84.8961 12.032C84.8321 12.16 84.7361 12.272 84.6241 12.352C84.4641 12.464 84.2721 12.512 84.0961 12.512C83.9361 12.512 83.7761 12.48 83.6481 12.4C83.2161 12.144 83.1521 11.552 83.1521 11.536V6.256C83.1361 6.176 83.1681 5.68 83.2961 5.424C83.3921 5.216 83.6321 5.072 83.9361 5.04C84.3041 4.992 84.6401 5.088 84.8161 5.28C84.9441 5.44 84.9761 5.52 85.0241 5.696C85.0881 5.904 85.0881 5.968 85.0721 6.24ZM79.3121 9.12C79.3121 8.192 79.2001 7.408 78.2881 7.072C77.3121 6.736 75.8401 7.04 75.6321 8.368C75.5041 9.28 75.8881 10.272 77.2161 10.384C78.1121 10.48 79.0721 10.192 79.3121 9.12ZM90.6183 9.376C90.2183 9.648 89.8663 10.032 89.3063 10.144C88.9223 10.224 88.5063 10.368 88.1863 9.888C87.8343 9.376 88.2183 9.008 88.5383 8.704C89.1783 8.128 89.8823 7.456 90.6023 6.96C91.0663 6.656 91.9943 5.792 91.9943 5.792C91.9943 5.792 91.8503 5.008 92.2983 4.656C92.5703 4.464 93.1303 4.4 93.4663 4.48C93.9623 4.608 94.0583 4.896 94.1223 5.28C94.1543 5.6 94.2183 5.872 94.4583 6.144C94.6343 6.336 94.9383 6.528 95.1463 6.704C95.8823 7.344 96.5863 7.856 97.3543 8.496C97.8503 8.896 98.1543 9.792 97.5303 10.128C96.9062 10.368 96.3142 9.984 95.9143 9.632C95.4823 9.312 94.8583 8.992 94.4583 8.624L93.0343 7.6C93.0343 7.6 92.2503 8.208 92.1703 8.272C91.7063 8.624 91.1302 9.024 90.6183 9.376ZM97.6743 11.024C98.0263 11.04 98.4263 11.104 98.7303 11.344C98.8743 11.456 98.9543 11.648 98.9543 11.84C98.9543 12.048 98.8743 12.32 98.7463 12.432C98.4103 12.752 97.5783 12.72 97.5463 12.72L89.0182 12.736C88.5383 12.752 87.9463 12.784 87.5943 12.496C87.3543 12.32 87.2263 12.144 87.2263 11.904C87.2263 11.616 87.4503 11.248 87.7863 11.136C88.2343 10.992 88.7143 11.04 89.1943 11.024C90.2343 10.992 90.5703 11.024 91.6423 11.024V10.096C91.6423 9.456 92.3143 9.248 92.9543 9.312C93.5303 9.376 93.8503 9.536 93.8663 9.952C93.8983 10.256 93.9143 10.656 93.9143 11.024C95.0983 11.024 96.7623 10.976 97.6743 11.024ZM96.7303 13.712C97.5943 13.712 98.1063 14 98.1063 14.496V15.584C98.1223 15.776 98.1383 16.992 98.1063 17.232C98.0743 17.68 97.7223 17.984 97.2423 17.984C97.1303 17.984 97.0183 17.968 96.9062 17.936C96.3303 17.76 96.2983 17.232 96.2823 16.752C96.2663 16.56 96.2503 15.776 96.2183 15.616C96.1543 15.6 95.9303 15.568 95.1463 15.568C94.4583 15.568 93.9303 15.584 93.9303 15.584H88.5863C88.5543 15.584 87.9303 15.44 87.8663 14.992C87.8023 14.592 87.8663 14.272 88.0583 14.032C88.3143 13.728 88.6983 13.728 88.7143 13.728L96.7303 13.712Z" fill="black"/>
</svg>
