<svg width="208" height="160" viewBox="0 0 208 160" fill="none" xmlns="http://www.w3.org/2000/svg">
<path d="M16.476 22.2799V50.7691C16.476 52.2165 16.3236 53.5876 16.3998 54.9587C16.3998 55.6443 16.3998 56.4822 16.933 56.9393C17.5424 57.4725 18.5327 57.3963 19.2944 57.3963C20.437 57.3963 21.6558 57.4725 22.7985 57.4725C25.3884 57.4725 30.4921 57.3963 33.0058 57.701C34.7578 57.9295 36.7384 58.1581 38.2619 59.1483C39.0236 59.6815 39.4045 60.5956 39.4806 61.5097C39.5568 61.9668 39.5568 62.4238 39.5568 62.957C39.4806 64.0997 39.0998 65.1661 38.338 66.004C37.5763 66.8419 36.586 67.299 35.5196 67.5275C34.0723 67.756 32.7773 67.9846 31.33 67.9846C30.4159 67.9846 26.1501 67.9084 25.3122 67.9084H18.3042C16.3236 67.9084 14.4193 67.6037 12.4387 67.5275C10.9153 67.4513 9.16324 66.9943 8.02063 65.9278C6.95419 64.8614 6.42097 63.4903 6.11627 62.043C5.50688 58.7675 5.81157 55.2634 5.81157 51.9118V33.249C5.81157 31.497 5.88775 29.6689 5.81157 27.8407C5.81157 27.536 5.65922 21.2135 5.81157 17.8618C5.96392 15.8051 6.49714 13.2914 9.08707 12.2249C10.2297 11.8441 11.4485 11.5394 12.6673 11.8441C13.8861 12.1488 15.0287 12.9105 15.5619 14.2055C16.1713 15.6528 16.3998 17.2524 16.3998 18.9283C16.3998 20.0709 16.3998 21.1373 16.476 22.2799ZM57.0007 33.6299H57.1531C57.6101 33.6299 58.0672 33.7823 58.6004 33.7823C59.1336 33.8584 59.743 33.9346 60.3524 34.0108C61.495 34.2393 62.7138 34.6964 63.247 35.839C63.6279 36.4484 63.7803 37.1339 63.7803 37.8195C63.7803 38.5813 63.7803 39.2668 63.5517 40.0286C63.3994 40.7903 63.1709 41.8567 62.4853 42.39C61.8759 42.847 61.1903 43.2279 60.4286 43.3802C58.8289 43.6088 56.0866 43.3802 54.487 43.4564C54.3346 43.4564 54.2585 43.5326 54.2585 43.5326C54.2585 43.5326 54.1823 43.5326 54.1823 43.8373C54.1061 46.351 54.1823 50.9215 54.1823 53.5114C54.2585 56.1014 54.2585 58.7675 54.1823 61.2812V62.3477C54.1823 65.0138 54.1823 68.8986 52.3541 70.7268C51.7447 71.4124 50.9068 71.7933 49.9165 71.7933C49.9165 71.7933 49.8404 71.7171 49.7642 71.7171C44.8128 71.5647 44.2796 65.6231 44.2796 62.4238V17.1763C44.2796 17.0239 44.2034 13.2152 45.8793 11.5394C46.5649 10.8538 48.1645 10.4729 49.3071 10.4729C50.4497 10.4729 51.44 10.93 52.1256 11.6155C53.4967 13.0628 53.5729 14.6625 53.7252 16.3383C53.8014 16.643 53.8014 16.9477 53.8014 17.2524C54.0299 18.9283 54.0299 20.8326 54.1061 22.6608C54.1061 23.8034 54.1823 24.7937 54.1823 25.9363C54.1061 26.5457 54.1823 27.0789 54.1823 27.6121V31.8017C54.1823 32.335 54.1823 32.9443 54.3346 33.4776C54.3346 33.5537 55.8581 33.5537 55.9343 33.5537C56.3152 33.6299 56.6199 33.7061 57.0007 33.6299ZM86.3338 9.48265C96.6935 10.1682 102.483 16.1098 101.721 27.0027C101.035 36.0675 96.1603 41.3235 86.4862 41.3235C81.2301 41.3235 78.4879 41.7044 73.8412 38.8098C69.4231 35.9913 68.052 30.3544 68.052 25.4793C68.052 14.5102 75.8218 8.7209 86.3338 9.48265ZM122.669 35.7628H122.821C123.355 35.6866 123.812 35.839 124.269 35.839C124.878 35.9151 125.411 35.9913 126.021 36.0675C127.163 36.296 128.382 36.7531 128.991 37.8957C129.296 38.5051 129.449 39.1906 129.449 39.9524C129.449 40.638 129.449 41.3997 129.296 42.0853C129.068 42.847 128.839 43.9135 128.23 44.4467C127.62 44.9037 126.859 45.2846 126.097 45.4369C124.497 45.6655 121.755 45.4369 120.155 45.5131C120.003 45.5893 119.927 45.5893 119.927 45.5893C119.927 45.5893 119.927 45.6655 119.851 45.894C119.774 48.4077 119.851 50.6168 119.851 53.2067C119.927 55.7967 119.927 58.4628 119.851 60.9765V62.043C119.851 64.7091 119.927 68.5939 118.099 70.4983C117.413 71.1077 116.575 71.4886 115.585 71.4886H115.432C110.481 71.2601 110.024 65.3185 110.024 62.1191V16.8716C110.024 16.7192 109.872 12.9105 111.548 11.2347C112.309 10.5491 113.909 10.1682 114.975 10.1682C116.118 10.1682 117.184 10.6253 117.87 11.3108C119.165 12.7581 119.317 14.3578 119.393 16.0336C119.47 16.3383 119.47 16.643 119.546 17.0239C119.698 18.6236 119.698 20.5279 119.774 22.3561C119.774 23.4987 119.851 24.5652 119.851 25.6316V33.8584C119.851 34.3917 119.851 35.0011 120.003 35.5343C120.003 35.6105 121.526 35.6105 121.679 35.6866C121.983 35.6866 122.364 35.7628 122.669 35.7628ZM72.1654 56.2537C72.5463 56.1014 77.2691 56.4061 78.564 56.4061C78.7164 54.8064 78.8687 46.7319 79.0973 46.1225C79.4781 44.9037 80.3922 43.9896 81.4587 43.5326C82.0681 43.3041 82.6013 43.2279 83.2107 43.2279C85.4197 43.2279 87.3241 44.5229 87.8573 46.351C88.162 47.1128 88.162 54.8826 88.162 56.3299V56.4061H100.578C102.254 56.4061 103.625 56.7107 104.616 57.3201C106.901 58.6913 106.825 62.4238 105.834 64.252C104.92 65.8517 102.94 66.004 101.34 66.004H71.2513C71.1751 66.004 68.5852 65.7755 67.2141 65.1661C66.2238 64.6329 65.462 63.4903 65.2335 62.043C65.005 60.4433 65.5382 58.9198 66.5285 58.0057C68.3567 56.4822 70.4134 56.2537 72.1654 56.2537ZM92.8848 27.9168L92.961 27.3074C93.418 23.6511 91.5898 20.1471 88.3905 19.0044C84.1248 17.5571 77.5738 18.8521 76.7358 24.5652C76.1265 28.4501 77.8023 32.7158 83.6677 33.249C87.705 33.7061 91.8945 32.5635 92.8848 27.9168ZM138.464 42.9232C136.407 41.4759 134.96 39.343 134.122 36.8292C133.132 34.2393 132.827 31.8017 132.827 29.288C132.827 26.6219 133.284 24.4128 134.122 22.2038C135.112 20.0709 136.255 18.1665 137.854 16.7192C139.454 15.0434 141.206 13.8246 143.491 12.9867C145.548 11.9964 147.986 11.5394 150.576 11.5394C151.566 11.387 152.328 11.387 153.242 11.5394C154.08 11.5394 155.07 11.6917 155.908 11.8441C156.289 11.9964 156.822 11.9964 157.279 12.1488C157.812 12.1488 158.269 12.3773 158.574 12.5296C159.717 12.8343 160.631 13.139 161.621 13.6722C162.611 14.1293 163.449 14.5863 164.211 15.0434C164.82 15.3481 165.658 16.0336 166.344 16.7192C167.334 17.7095 167.943 18.4712 168.553 19.5377C169.162 20.5279 169.695 21.6705 169.848 22.9655C170.152 24.1081 170.305 25.2507 170.533 26.3934C170.686 27.4598 170.838 28.6024 170.686 29.8974C170.686 30.5068 170.533 31.3447 170.533 31.9541C170.305 32.792 170.305 33.6299 170 34.2393C169.695 36.1437 169.01 38.1242 168.096 39.7239C166.953 41.4759 165.658 42.6947 163.906 43.9135C162.611 44.6752 161.316 45.3608 159.869 45.6655C158.574 46.0463 157.127 46.2749 155.755 46.5796C155.222 46.7319 154.765 46.7319 154.232 46.7319C153.927 46.7319 153.394 46.7319 152.937 46.8843H151.566C151.185 46.8843 150.728 46.8843 150.195 46.7319C149.585 46.7319 148.9 46.7319 148.29 46.5796C147.529 46.5796 146.843 46.4272 146.157 46.4272C144.71 46.1987 143.491 45.8178 142.196 45.2084C140.825 44.5229 139.606 43.9135 138.464 42.9232ZM187.596 20.1471V25.0984C187.749 27.0789 187.749 29.288 187.749 31.5732V43.9135C187.749 46.1987 187.749 48.2554 187.596 50.1598V58.8436C187.444 60.4433 187.596 62.1191 187.596 63.4903C187.596 64.4805 187.596 65.4708 187.444 66.2325C187.444 67.0705 187.292 67.6799 186.911 68.2131C186.758 68.6701 186.454 68.9748 186.301 69.508C185.92 69.8127 185.616 70.2698 184.778 70.5745C183.864 71.2601 182.569 71.4124 181.274 71.2601C180.436 71.0315 179.827 70.7268 179.369 70.2698C178.912 69.9651 178.532 69.3557 178.227 68.6701C177.922 67.9846 177.694 67.3752 177.694 66.6896C177.541 66.2325 177.389 65.6231 177.389 65.3185V64.4805L177.237 19.3091C177.237 18.0142 177.237 16.7192 177.541 15.1195C177.694 13.6722 178.227 12.5296 178.912 11.7679C179.522 11.3108 180.131 10.93 180.588 10.7776C181.274 10.6253 181.883 10.6253 182.721 10.6253C183.559 10.6253 184.321 10.7776 185.159 11.3108C185.768 11.7679 186.301 12.4534 186.606 13.2152C187.063 14.3578 187.444 15.5004 187.444 16.5669C187.444 17.7095 187.444 19.0044 187.596 20.1471ZM170.838 55.2634C171.524 55.492 172.133 55.7967 172.59 56.1014C173.58 57.0916 174.19 58.0819 174.19 59.3007C174.19 60.1386 173.885 60.9765 173.352 61.5859C172.895 62.1953 172.361 62.6523 171.676 62.8809C171.143 63.0332 170.686 63.1856 170.152 63.1856C169.543 63.3379 169.01 63.3379 168.553 63.3379H161.316C159.564 63.3379 157.812 63.3379 155.908 63.4903H150.576C148.747 63.3379 147.376 63.3379 146.005 63.3379H138.007C137.017 63.3379 136.102 63.1856 135.112 63.0332C134.579 62.8809 134.122 62.6523 133.665 62.5C133.132 62.3477 132.827 62.1953 132.37 61.8144C131.761 61.1289 131.38 60.2909 131.38 58.996C131.38 57.9295 131.761 57.0916 132.37 56.4061C132.675 55.949 133.132 55.6443 133.817 55.492C134.427 55.2634 135.112 55.1111 135.569 54.9587C136.255 54.8064 136.636 54.8064 137.017 54.8064H165.81C166.801 54.8064 167.791 54.8064 168.553 54.9587C169.391 54.9587 170 55.1111 170.838 55.2634ZM142.958 27.9168C142.806 28.9071 142.806 29.8974 142.958 30.9638C143.187 32.1064 143.491 33.0967 143.948 33.9346C145.015 35.5343 146.538 36.6769 148.443 37.4386C149.89 37.9719 151.337 38.1242 152.785 38.1242C153.623 37.9719 154.232 37.9719 155.07 37.8195C155.755 37.8195 156.441 37.4386 157.127 37.1339C158.117 36.6769 158.955 35.839 159.564 34.8487C160.25 33.7823 160.478 32.792 160.783 31.6494C161.164 29.8974 161.011 28.4501 160.478 26.7742C160.25 26.0887 159.869 25.4031 159.564 24.8699C159.259 24.5652 159.107 24.1081 158.726 23.9558C158.574 23.5749 158.269 23.2702 157.812 22.9655C157.431 22.737 156.974 22.5085 156.593 22.3561C156.212 22.0514 155.755 21.8991 155.222 21.6705C153.927 21.3658 152.632 21.2135 151.185 21.2135C149.89 21.2135 148.595 21.3658 147.529 21.8991C146.386 22.3561 145.396 22.9655 144.558 24.1081C143.796 25.0984 143.339 26.3934 142.958 27.9168Z" fill="white"/>
<path d="M30.1112 90.4964C36.2051 93.7719 38.7189 99.485 38.1095 107.407C37.5001 117.538 32.5488 122.49 22.0367 122.49C16.476 122.49 13.429 122.947 8.47768 119.747C3.67869 116.624 2.23138 111.063 2.23138 105.731C2.23138 100.399 4.05956 95.4477 8.4015 92.0961C11.9817 89.2776 16.6283 87.9065 21.0464 88.2873C25.0837 88.592 26.531 88.8967 30.1112 90.4964ZM50.3736 128.888C54.5632 128.888 56.5437 131.021 56.5437 133.383V137.725C56.5437 138.334 56.5437 141.533 56.6199 142.066C56.6199 143.133 56.6199 144.275 56.5437 145.418C56.3913 147.551 54.7155 148.998 52.4303 148.998C51.8971 148.998 50.2974 148.922 49.7642 148.77C47.0219 147.932 46.8696 145.418 46.7172 143.133C46.7172 142.219 46.641 138.715 46.4125 137.953C46.1078 137.877 45.1175 137.725 41.3088 137.725C38.1095 137.725 37.7286 137.801 37.6525 137.801H10.1535C10.0012 137.801 7.03036 137.039 6.72566 134.982C6.42097 133.002 6.72566 131.478 7.63976 130.412C8.85855 128.964 10.6867 128.964 10.7629 128.888H50.3736ZM56.4675 94.5336V96.438C57.3054 96.5142 61.4189 96.5904 62.3329 96.8189C64.3135 97.1997 64.999 98.0377 65.2276 99.1041C65.5323 100.171 65.6084 101.923 64.999 102.913C63.7803 104.893 61.1903 104.817 58.2195 104.893H56.4675V109.54H62.1806C64.1611 109.921 64.8467 110.759 65.0752 111.825C65.3799 112.892 65.6084 114.644 64.999 115.634C63.7803 117.614 61.1142 117.614 58.1434 117.691H56.4675V118.681C56.3913 119.747 56.239 120.966 55.6296 122.109C55.3249 122.718 54.8679 123.251 54.3346 123.632C53.5729 124.165 52.6588 124.394 51.8209 124.394C51.0591 124.394 50.2974 124.242 49.688 123.861C47.6313 122.642 47.3266 119.824 47.3266 119.747V94.6098C47.2504 94.2289 47.4028 91.8675 48.0122 90.6488C48.4692 89.6585 49.6118 88.9729 51.0591 88.8206C52.8112 88.592 54.4108 89.0491 55.2487 89.9632C55.8581 90.7249 56.0105 91.1058 56.239 91.9437C56.5437 92.934 56.5437 93.2387 56.4675 94.5336ZM29.0448 108.245C29.0448 103.827 28.5115 100.094 24.1696 98.4947C19.523 96.895 12.5149 98.3424 11.5246 104.665C10.9153 109.007 12.7434 113.73 19.0659 114.263C23.3317 114.72 27.9021 113.349 29.0448 108.245ZM82.8721 109.464C80.9677 110.759 79.2919 112.587 76.6258 113.12C74.7976 113.501 72.817 114.187 71.2935 111.901C69.6177 109.464 71.4459 107.712 72.9694 106.264C76.0164 103.522 79.368 100.323 82.7959 97.9615C85.0049 96.5142 89.423 92.4008 89.423 92.4008C89.423 92.4008 88.7375 88.6682 90.8704 86.9924C92.1653 86.0783 94.8314 85.7736 96.4311 86.1545C98.7925 86.7639 99.2495 88.135 99.5542 89.9632C99.7066 91.4867 100.011 92.7816 101.154 94.0766C101.992 94.9907 103.439 95.9048 104.429 96.7427C107.933 99.7897 111.285 102.227 114.941 105.274C117.303 107.179 118.75 111.444 115.779 113.044C112.809 114.187 109.99 112.358 108.086 110.683C106.029 109.159 103.058 107.636 101.154 105.884L94.3744 101.008C94.3744 101.008 90.6418 103.903 90.261 104.208C88.0519 105.884 85.3096 107.788 82.8721 109.464ZM116.465 117.31C118.141 117.386 120.045 117.691 121.492 118.833C122.178 119.366 122.559 120.281 122.559 121.195C122.559 122.185 122.178 123.48 121.569 124.013C119.969 125.537 116.008 125.384 115.856 125.384L75.2546 125.46C72.9694 125.537 70.1509 125.689 68.4751 124.318C67.3325 123.48 66.7231 122.642 66.7231 121.499C66.7231 120.128 67.7895 118.376 69.3892 117.843C71.5221 117.157 73.8073 117.386 76.0925 117.31C81.0439 117.157 82.6435 117.31 87.7472 117.31V112.892C87.7472 109.845 90.9465 108.854 93.9935 109.159C96.7358 109.464 98.2593 110.226 98.3354 112.206C98.4878 113.653 98.564 115.558 98.564 117.31C104.201 117.31 112.123 117.081 116.465 117.31ZM111.971 130.107C116.084 130.107 118.522 131.478 118.522 133.84V139.019C118.598 139.934 118.674 145.723 118.522 146.865C118.369 148.998 116.693 150.446 114.408 150.446C113.875 150.446 113.342 150.369 112.809 150.217C110.066 149.379 109.914 146.865 109.838 144.58C109.762 143.666 109.685 139.934 109.533 139.172C109.228 139.096 108.162 138.943 104.429 138.943C101.154 138.943 98.6401 139.019 98.6401 139.019H73.1979C73.0456 139.019 70.0748 138.334 69.7701 136.201C69.4654 134.297 69.7701 132.773 70.6842 131.631C71.9029 130.183 73.7311 130.183 73.8073 130.183L111.971 130.107Z" fill="white"/>
<path d="M148.166 90.101C152.207 83.1016 161.157 80.7035 168.157 84.7446C175.156 88.7857 177.554 97.7358 173.513 104.735L166.196 117.409L153.522 110.092C146.523 106.051 144.125 97.1004 148.166 90.101Z" fill="white"/>
<path d="M200.128 120.101C204.169 113.102 201.77 104.152 194.771 100.11C187.772 96.0693 178.822 98.4675 174.78 105.467L167.463 118.14L180.137 125.458C187.136 129.499 196.086 127.1 200.128 120.101Z" fill="white"/>
<path d="M132.8 116.716C128.759 123.715 131.157 132.665 138.156 136.706C145.156 140.747 154.106 138.349 158.147 131.35L165.464 118.676L152.791 111.359C145.791 107.318 136.841 109.716 132.8 116.716Z" fill="white"/>
<path d="M184.762 146.716C180.72 153.715 171.77 156.113 164.771 152.072C157.772 148.031 155.373 139.081 159.414 132.081L166.732 119.408L179.405 126.725C186.404 130.766 188.803 139.716 184.762 146.716Z" fill="white"/>
</svg>
