<svg width="48" height="48" viewBox="0 0 48 48" fill="none" xmlns="http://www.w3.org/2000/svg">
<path d="M7.40648 19.1231C10.0897 15.7631 14.5633 11.7407 20.0305 10.5503C24.6073 9.5543 30.2305 10.4711 36.5113 16.1999H30.0001C29.5227 16.1999 29.0649 16.3895 28.7273 16.7271C28.3897 17.0647 28.2001 17.5225 28.2001 17.9999C28.2001 18.4773 28.3897 18.9351 28.7273 19.2727C29.0649 19.6103 29.5227 19.7999 30.0001 19.7999H40.8001C41.2775 19.7999 41.7353 19.6103 42.0729 19.2727C42.4104 18.9351 42.6001 18.4773 42.6001 17.9999V8.3999C42.6001 7.92251 42.4104 7.46468 42.0729 7.12711C41.7353 6.78955 41.2775 6.5999 40.8001 6.5999C40.3227 6.5999 39.8649 6.78955 39.5273 7.12711C39.1897 7.46468 39.0001 7.92251 39.0001 8.3999V13.6007C31.9825 7.1759 25.2073 5.7407 19.2673 7.0319C12.6385 8.4743 7.51208 13.2239 4.59368 16.8791C4.31358 17.2536 4.19023 17.7224 4.24975 18.1863C4.30927 18.6501 4.54699 19.0726 4.91257 19.3643C5.27815 19.6559 5.74288 19.7939 6.20838 19.7488C6.67387 19.7038 7.10357 19.4794 7.40648 19.1231ZM15.6001 25.8023C14.4862 25.8023 13.4179 26.2448 12.6302 27.0325C11.8426 27.8201 11.4001 28.8884 11.4001 30.0023V37.2023C11.4001 39.5207 13.2817 41.4023 15.6001 41.4023H32.4001C33.514 41.4023 34.5823 40.9598 35.3699 40.1722C36.1576 39.3845 36.6001 38.3162 36.6001 37.2023V30.0023C36.6001 28.8884 36.1576 27.8201 35.3699 27.0325C34.5823 26.2448 33.514 25.8023 32.4001 25.8023H15.6001ZM15.0001 30.0023C15.0001 29.8432 15.0633 29.6906 15.1758 29.578C15.2883 29.4655 15.441 29.4023 15.6001 29.4023H32.4001C32.5592 29.4023 32.7118 29.4655 32.8244 29.578C32.9369 29.6906 33.0001 29.8432 33.0001 30.0023V37.2023C33.0001 37.3614 32.9369 37.514 32.8244 37.6266C32.7118 37.7391 32.5592 37.8023 32.4001 37.8023H15.6001C15.441 37.8023 15.2883 37.7391 15.1758 37.6266C15.0633 37.514 15.0001 37.3614 15.0001 37.2023V30.0023Z" fill="black"/>
</svg>
