<svg width="48" height="48" viewBox="0 0 48 48" fill="none" xmlns="http://www.w3.org/2000/svg">
<path d="M21.84 5.73602C22.0601 5.35834 22.3753 5.04497 22.7543 4.82717C23.1333 4.60937 23.5628 4.49475 24 4.49475C24.4371 4.49475 24.8666 4.60937 25.2456 4.82717C25.6246 5.04497 25.9399 5.35834 26.16 5.73602L31.75 15.332L42.606 17.684C43.033 17.7768 43.4282 17.9799 43.7523 18.2731C44.0764 18.5663 44.3179 18.9392 44.4529 19.3549C44.5878 19.7705 44.6115 20.2142 44.5215 20.6419C44.4315 21.0695 44.231 21.466 43.94 21.792L36.54 30.074L37.66 41.124C37.7042 41.5591 37.6334 41.9982 37.4548 42.3974C37.2762 42.7967 36.996 43.1421 36.6422 43.3991C36.2884 43.6562 35.8733 43.8159 35.4385 43.8624C35.0036 43.9089 34.5641 43.8405 34.164 43.664L24 39.184L13.836 43.664C13.4358 43.8405 12.9964 43.9089 12.5615 43.8624C12.1266 43.8159 11.7115 43.6562 11.3577 43.3991C11.0039 43.1421 10.7237 42.7967 10.5451 42.3974C10.3665 41.9982 10.2958 41.5591 10.34 41.124L11.46 30.074L4.05997 21.794C3.76843 21.4681 3.56748 21.0714 3.4772 20.6435C3.38691 20.2156 3.41045 19.7715 3.54546 19.3555C3.68046 18.9396 3.92222 18.5663 4.24658 18.273C4.57095 17.9797 4.96658 17.7766 5.39397 17.684L16.25 15.332L21.84 5.73602Z" fill="black"/>
</svg>
